<!--?xml version="1.0" standalone="no"?-->
              <svg id="sw-js-blob-svg" viewBox="0 0 100 100" xmlns="http://www.w3.org/2000/svg" version="1.1">
                    <defs> 
                        <linearGradient id="sw-gradient" x1="0" x2="1" y1="1" y2="0">
                            <stop id="stop1" stop-color="rgba(92.281, 62.031, 89.762, 0.17)" offset="0%"></stop>
                            <stop id="stop2" stop-color="rgba(0, 0, 0, 1)" offset="100%"></stop>
                        </linearGradient>
                    </defs>
                <path fill="none" d="M23.9,-36.4C31.2,-32.5,37.5,-26.2,40.7,-18.7C43.9,-11.2,44,-2.4,42.2,5.6C40.3,13.7,36.5,21,31.2,26.9C25.9,32.9,19.1,37.5,11.7,39.8C4.2,42,-4.1,41.9,-11.8,39.8C-19.6,37.8,-26.9,33.7,-33.1,27.9C-39.2,22.1,-44.1,14.6,-44.7,6.8C-45.3,-1,-41.5,-9.1,-36.9,-15.8C-32.3,-22.5,-26.7,-27.8,-20.4,-32.1C-14.2,-36.5,-7.1,-39.9,0.6,-40.8C8.3,-41.8,16.6,-40.3,23.9,-36.4Z" width="100%" height="100%" transform="translate(50 50)" stroke-width="1" style="transition: 0.3s;" stroke="url(#sw-gradient)"></path>
              </svg>