<!--?xml version="1.0" standalone="no"?-->
              <svg id="sw-js-blob-svg" viewBox="0 0 100 100" xmlns="http://www.w3.org/2000/svg" version="1.1">
                    <defs> 
                        <linearGradient id="sw-gradient" x1="0" x2="1" y1="1" y2="0">
                            <stop id="stop1" stop-color="rgba(92.281, 62.031, 89.762, 0.17)" offset="0%"></stop>
                            <stop id="stop2" stop-color="rgba(0, 0, 0, 1)" offset="100%"></stop>
                        </linearGradient>
                    </defs>
                <path fill="none" d="M18.2,-28.8C21.2,-26.4,19.7,-17.3,23.4,-10.4C27.2,-3.4,36.1,1.6,35.1,4.7C34.1,7.8,23,9.1,17.1,13.7C11.3,18.3,10.7,26.2,7.3,29.3C3.9,32.4,-2.3,30.7,-9.6,29.8C-16.9,29,-25.3,29.1,-31.2,25.3C-37.1,21.5,-40.7,13.9,-38.6,7.5C-36.6,1,-29,-4.4,-24.5,-9.9C-20,-15.5,-18.6,-21.2,-15.1,-23.3C-11.5,-25.5,-5.8,-24.2,0.9,-25.6C7.6,-27,15.2,-31.2,18.2,-28.8Z" width="100%" height="100%" transform="translate(50 50)" stroke-width="1" style="transition: 0.3s;" stroke="url(#sw-gradient)"></path>
              </svg>