<!--?xml version="1.0" standalone="no"?-->
              <svg id="sw-js-blob-svg" viewBox="0 0 100 100" xmlns="http://www.w3.org/2000/svg" version="1.1">
                    <defs> 
                        <linearGradient id="sw-gradient" x1="0" x2="1" y1="1" y2="0">
                            <stop id="stop1" stop-color="rgba(92.281, 62.031, 89.762, 0.17)" offset="0%"></stop>
                            <stop id="stop2" stop-color="rgba(0, 0, 0, 1)" offset="100%"></stop>
                        </linearGradient>
                    </defs>
                <path fill="none" d="M18.4,-26.2C21.8,-19,21.1,-11.3,18.5,-6.2C16,-1,11.6,1.6,10.4,8.2C9.2,14.8,11.1,25.4,7.4,31.7C3.6,38.1,-5.9,40.1,-12.6,36.7C-19.2,33.3,-23.1,24.5,-26.4,16.4C-29.7,8.3,-32.3,1.1,-29.9,-4C-27.4,-9,-19.9,-11.8,-14,-18.5C-8.2,-25.2,-4.1,-35.8,1.7,-37.8C7.5,-39.8,15,-33.3,18.4,-26.2Z" width="100%" height="100%" transform="translate(50 50)" stroke-width="1" style="transition: 0.3s;" stroke="url(#sw-gradient)"></path>
              </svg>