<!--?xml version="1.0" standalone="no"?-->
              <svg id="sw-js-blob-svg" viewBox="0 0 100 100" xmlns="http://www.w3.org/2000/svg" version="1.1">
                    <defs> 
                        <linearGradient id="sw-gradient" x1="0" x2="1" y1="1" y2="0">
                            <stop id="stop1" stop-color="rgba(92.281, 62.031, 89.762, 0.17)" offset="0%"></stop>
                            <stop id="stop2" stop-color="rgba(0, 0, 0, 1)" offset="100%"></stop>
                        </linearGradient>
                    </defs>
                <path fill="none" d="M18.9,-30.9C22.9,-27,23.2,-18.8,24,-12.4C24.8,-5.9,26.1,-1,26.3,4.4C26.5,9.8,25.6,15.6,22,18.4C18.5,21.1,12.3,20.8,7.3,20C2.4,19.1,-1.2,17.6,-6,17.5C-10.8,17.4,-16.8,18.6,-21,16.6C-25.3,14.6,-27.7,9.5,-27.3,4.6C-26.9,-0.2,-23.8,-4.8,-22,-10.6C-20.2,-16.3,-19.8,-23.2,-16.4,-27.4C-12.9,-31.6,-6.5,-33.1,0.5,-33.9C7.5,-34.7,15,-34.9,18.9,-30.9Z" width="100%" height="100%" transform="translate(50 50)" stroke-width="1" style="transition: 0.3s;" stroke="url(#sw-gradient)"></path>
              </svg>