<!--?xml version="1.0" standalone="no"?-->
              <svg id="sw-js-blob-svg" viewBox="0 0 100 100" xmlns="http://www.w3.org/2000/svg" version="1.1">
                    <defs> 
                        <linearGradient id="sw-gradient" x1="0" x2="1" y1="1" y2="0">
                            <stop id="stop1" stop-color="rgba(92.281, 62.031, 89.762, 0.17)" offset="0%"></stop>
                            <stop id="stop2" stop-color="rgba(251, 168, 31, 0)" offset="100%"></stop>
                        </linearGradient>
                    </defs>
                <path fill="none" d="M15.7,-22C20.3,-21.4,23.9,-17,28.4,-11.6C33,-6.3,38.5,0,36.6,4.4C34.6,8.8,25.2,11.2,19.8,16.8C14.4,22.4,13.1,31.2,9.8,31C6.6,30.9,1.4,21.8,-5.3,19.3C-11.9,16.7,-20.1,20.6,-21.7,18.8C-23.4,17,-18.4,9.5,-17.7,3.5C-17,-2.4,-20.5,-6.7,-20.4,-10.2C-20.2,-13.8,-16.3,-16.6,-12.3,-17.4C-8.3,-18.2,-4.1,-17,0.7,-18.1C5.5,-19.2,11.1,-22.5,15.7,-22Z" width="100%" height="100%" transform="translate(50 50)" stroke-width="1" style="transition: 0.3s;" stroke="url(#sw-gradient)"></path>
              </svg>